<?xml version="1.0" encoding="iso-8859-1"?>
<!-- Generator: Adobe Illustrator 19.0.0, SVG Export Plug-In . SVG Version: 6.00 Build 0)  -->
<svg xmlns="http://www.w3.org/2000/svg" xmlns:xlink="http://www.w3.org/1999/xlink" version="1.1" id="Capa_1" x="0px" y="0px" viewBox="0 0 512 512" style="enable-background:new 0 0 512 512;" xml:space="preserve" width="512px" height="512px">
<g>
	<g>
		<g>
			<path d="M426.667,0H85.333C61.802,0,42.667,19.135,42.667,42.667v426.667c0,23.531,19.135,42.667,42.667,42.667h341.333     c23.531,0,42.667-19.135,42.667-42.667V42.667C469.333,19.135,450.198,0,426.667,0z M448,469.333     c0,11.76-9.573,21.333-21.333,21.333H85.333c-11.76,0-21.333-9.573-21.333-21.333v-320h384V469.333z M448,128H64V42.667     c0-11.76,9.573-21.333,21.333-21.333h341.333c11.76,0,21.333,9.573,21.333,21.333V128z" fill="#0e75b5"/>
			<path d="M256,469.333c82.344,0,149.333-66.99,149.333-149.333S338.344,170.667,256,170.667S106.667,237.656,106.667,320     S173.656,469.333,256,469.333z M256,192c70.583,0,128,57.417,128,128s-57.417,128-128,128s-128-57.417-128-128     S185.417,192,256,192z" fill="#0e75b5"/>
			<path d="M224,42.667H117.333c-5.896,0-10.667,4.771-10.667,10.667V96c0,5.896,4.771,10.667,10.667,10.667h64     c29.406,0,53.333-23.927,53.333-53.333C234.667,47.438,229.896,42.667,224,42.667z M181.333,85.333H128V64h83.51     C207.104,76.417,195.24,85.333,181.333,85.333z" fill="#0e75b5"/>
			<path d="M341.333,53.333c0-5.896-4.771-10.667-10.667-10.667h-21.333c-5.896,0-10.667,4.771-10.667,10.667     c0,5.896,4.771,10.667,10.667,10.667h21.333C336.563,64,341.333,59.229,341.333,53.333z" fill="#0e75b5"/>
			<path d="M394.667,42.667h-21.333c-5.896,0-10.667,4.771-10.667,10.667c0,5.896,4.771,10.667,10.667,10.667h21.333     c5.896,0,10.667-4.771,10.667-10.667C405.333,47.438,400.563,42.667,394.667,42.667z" fill="#0e75b5"/>
			<path d="M288,85.333h-21.333C260.771,85.333,256,90.104,256,96s4.771,10.667,10.667,10.667H288     c5.896,0,10.667-4.771,10.667-10.667S293.896,85.333,288,85.333z" fill="#0e75b5"/>
			<path d="M352,85.333h-21.333C324.771,85.333,320,90.104,320,96s4.771,10.667,10.667,10.667H352     c5.896,0,10.667-4.771,10.667-10.667S357.896,85.333,352,85.333z" fill="#0e75b5"/>
			<path d="M256,426.667c39.24,0,75.219-21.813,93.875-56.917c1.781-3.354,1.646-7.406-0.354-10.625     c-3.958-6.396-8.188-20.031-8.188-39.125s4.229-32.729,8.188-39.125c2-3.219,2.135-7.271,0.354-10.625     c-18.656-35.104-54.635-56.917-93.875-56.917c-58.813,0-106.667,47.854-106.667,106.667S197.188,426.667,256,426.667z      M256,234.667c29.51,0,56.729,15.5,72.292,40.792C322.979,286.99,320,302.792,320,320s2.979,33.01,8.292,44.542     c-15.563,25.292-42.781,40.792-72.292,40.792c-47.052,0-85.333-38.281-85.333-85.333     C170.667,272.948,208.948,234.667,256,234.667z" fill="#0e75b5"/>
			<path d="M213.333,320c0-23.531,19.135-42.667,42.667-42.667c5.896,0,10.667-4.771,10.667-10.667     c0-5.896-4.771-10.667-10.667-10.667c-35.292,0-64,28.708-64,64c0,5.896,4.771,10.667,10.667,10.667     C208.563,330.667,213.333,325.896,213.333,320z" fill="#0e75b5"/>
		</g>
	</g>
</g>
<g>
</g>
<g>
</g>
<g>
</g>
<g>
</g>
<g>
</g>
<g>
</g>
<g>
</g>
<g>
</g>
<g>
</g>
<g>
</g>
<g>
</g>
<g>
</g>
<g>
</g>
<g>
</g>
<g>
</g>
</svg>
